# xmcd CD database file
#
# Track frame offsets:
#	150
#	19500
#	41837
#	68237
#
# Disc length: 923 seconds
#
# Revision: 0
# Processed by: cddbd v1.5PL3 Copyright (c) Steve Scherf et al.
# Submitted via: CDex 1.40Release
#
DISCID=2d039904
DTITLE=モモ - メイクミーハッピー
DYEAR=2000
DGENRE=Pop
TTITLE0=Make Me Happy
TTITLE1=PostPet 2001のテーマ(Wall 5 Remix)
TTITLE2=おつかいモモ
TTITLE3=DATA Track
EXTD=YEAR: 2000 ID3G: 13
EXTT0=
EXTT1=
EXTT2=
EXTT3=
PLAYORDER=
